<svg xmlns="http://www.w3.org/2000/svg"
     height="800" width="1200" viewBox="-18.9309 -14.625 164.0678 87.75">
<!--     width="32"-->
<!--     height="32"-->
<!--     viewBox="0 0 32 32"-->
    <path
        d="M13.6301 5.2c-20.1 12.4-8.7 49.1-8.7 50 25.5-17.1 87 7 107.6-4.1 20.3-11 9-46.9 9-46.9-31.5 15.9-88.5-11-107.9 1z"
        fill="#fff"/>
    <path
        d="M122.6301 3s-.1 0 0 0l-8.8-2.9h-.3l-.3-.1c-7.2 6.5-20.3 7.1-35.1 6-6.5-.5-13.3-1.3-20.1-2.2-4.8-.5-9.7-1.1-14.5-1.5-.2 0-.5 0-.8-.1-.5 0-1.1-.1-1.6-.1-5.4-.5-10.5-.8-15.2-.8-13.2.3-23.1 6.7-25.5 25v.4c-1.8 14.6 2.6 30 3.1 30.3.1 0 .1.1.2.1l7.3 1.4h.1c.1 0 .2 0 .3-.1 10-9.1 33.4-6.7 55.9-4.4 11.6 1.3 23.5 2.5 33.3 2.1 1.6-.1 3.1-.2 4.6-.4 12.5-1.9 19.1-9.8 20.6-24.4 1.7-15.1-2.9-28.1-3.2-28.3m-109.3 2.8c19.4-11.9 76.5 14.7 107.7-1 0 0 11.3 35.3-9 46.1-20.5 11-82.1-12.8-107.6 4.1.2-.8-11.1-37 8.9-49.2m70.7 48.8c.4 0 1 .1 1.4.1-.4 0-1-.1-1.4-.1"
        fill="#263576"/>
    <path
        d="M30.5301 29.8c1.6-1.1 2.5-2.7 2.5-4.8 0-4.2-2.7-6.4-8-6.4h-11.4v24.6h11.8c4 0 8.7-1.9 8.7-7.3 0-3-1.2-5-3.6-6.1m-5.8 8.3h-5V23.6h4.3c2.7 0 3 1.1 3 2.2 0 1.5-.9 2.3-2.6 2.3h-1.5l-2.1 4.5h4c2.2 0 3.1.9 3.1 2.8.2 1.2-.3 2.7-3.2 2.7m10.9-19.5h6.2v24.6h-6.2zm8.2-.1V43h6.1V28l3.6 15h6.2l3.6-15.2V43h6.1V18.5h-9.7l-3.1 13.9-3.1-13.9zm44.8 11.4c1.6-1.1 2.5-2.7 2.5-4.8 0-4.2-2.7-6.4-8-6.4h-11.4v24.6h11.8c4 0 8.7-1.9 8.7-7.3 0-2.9-1.3-5-3.6-6.1m-5.8 8.3h-5V23.9h4.3c2.7 0 3 1.1 3 2.2 0 1.5-.9 2.3-2.6 2.3h-1.4l-2.3 4.5h4c2.2 0 3.1.9 3.1 2.8.2 1.1-.2 2.5-3.1 2.5m22.5-19.9c-6.8 0-12.3 5.5-12.3 12.3 0 6.8 5.5 12.3 12.3 12.3 6.8 0 12.3-5.5 12.3-12.3.1-6.7-5.4-12.3-12.3-12.3m0 18.8c-3.5 0-6.5-2.9-6.5-6.5s2.9-6.5 6.5-6.5 6.4 2.9 6.4 6.5c.1 3.7-2.9 6.5-6.4 6.5"
        fill="#e62530"/>
    <path
        d="M21.7301 15.4c-.5.3-1.1.5-1.7.6-.6.1-1.2.2-1.8.2-.6 0-1.2-.1-1.8-.3-.5-.2-1-.5-1.4-.8-.4-.4-.7-.8-.9-1.3-.2-.5-.3-1.1-.3-1.7 0-.6.1-1.2.3-1.7.2-.5.5-.9.9-1.3s.9-.6 1.4-.8c.7-.2 1.3-.3 1.9-.3.7 0 1.3.1 1.8.2.5.2 1 .4 1.4.8l-1.2 1.3c-.2-.2-.5-.4-.8-.5-.3-.1-.7-.2-1.2-.2-.4 0-.7.1-1 .2-.3.1-.6.3-.8.5-.2.2-.4.5-.5.8-.1.3-.2.6-.2 1s.1.7.2 1c.1.3.3.6.5.8.2.2.5.4.8.5.3.1.7.2 1 .2.4 0 .7 0 1-.1.3-.1.5-.2.7-.3v-1.3h-1.5v-1.6h3.2v4.1zm1.1-7.2h3.2c.4 0 .8 0 1.2.1.4.1.7.2 1 .4.3.2.5.4.7.7.2.3.2.7.2 1.1 0 .5-.1 1-.4 1.4-.3.4-.7.6-1.3.7l2.1 3.3h-2.2l-1.7-3.1h-.9v3.1h-1.8V8.2zm1.8 3.2h1.6c.2 0 .3 0 .5-.1.1-.1.3-.1.4-.3.1-.1.1-.3.1-.5s0-.4-.1-.5l-.3-.3c-.1-.1-.3-.1-.4-.1h-1.7v1.8zm12.1 1.6c0 .5-.1.9-.2 1.3s-.4.7-.6 1c-.3.3-.6.5-1.1.7-.5.1-1 .2-1.5.2-.6 0-1.1-.1-1.5-.2-.4-.2-.8-.4-1.1-.7-.3-.3-.5-.6-.6-1-.1-.4-.2-.8-.2-1.3V8.2h1.8v4.7c0 .2 0 .5.1.7.1.2.2.4.3.5.1.1.3.3.5.3.2.1.4.1.7.1.2 0 .5 0 .7-.1.2-.1.4-.2.5-.3.1-.2.3-.3.3-.5.1-.2.1-.4.1-.7V8.2h1.8V13zm1.2-4.8h3c.4 0 .8 0 1.2.1.4.1.7.2 1 .4.3.2.5.4.7.7.2.3.2.7.2 1.1 0 .5-.1.8-.2 1.1-.2.3-.4.6-.6.7-.3.2-.6.3-1 .4-.4.1-.8.1-1.2.1h-1.3v3h-1.8V8.2zm1.8 3.3h1.7c.1 0 .3-.1.4-.1l.3-.3c.1-.1.1-.3.1-.5s0-.4-.1-.5c-.1-.1-.2-.2-.4-.3-.2-.1-.3-.1-.5-.1h-1.4zm5 .6c0-.6.1-1.2.3-1.7.2-.5.5-.9.9-1.3s.9-.6 1.4-.8c.5-.2 1.1-.3 1.8-.3.6 0 1.2.1 1.8.3.5.2 1 .5 1.4.8.4.4.7.8.9 1.3.2.5.3 1.1.3 1.7 0 .6-.1 1.2-.3 1.7-.2.5-.5.9-.9 1.3s-.9.6-1.4.8c-.5.2-1.1.3-1.8.3-.6 0-1.2-.1-1.8-.3-.5-.2-1-.5-1.4-.8-.4-.4-.7-.8-.9-1.3-.2-.5-.3-1.1-.3-1.7m1.9 0c0 .4.1.7.2 1 .1.3.3.6.5.8.2.2.5.4.8.5.3.1.7.2 1 .2.4 0 .7-.1 1-.2.3-.1.6-.3.8-.5.2-.2.4-.5.5-.8.1-.3.2-.6.2-1s-.1-.7-.2-1c-.1-.3-.3-.6-.5-.8-.2-.2-.5-.4-.8-.5-.3-.1-.7-.2-1-.2-.4 0-.7.1-1 .2-.3.1-.6.3-.8.5-.2.2-.4.5-.5.8-.2.3-.2.6-.2 1m73.9 43.1c0-.4.1-.7.2-1 .1-.3.3-.6.6-.8.2-.2.5-.4.8-.6.3-.1.7-.2 1-.2.4 0 .7.1 1 .2.3.1.6.3.8.5.2.2.4.5.6.8.1.3.2.7.2 1 0 .4-.1.7-.2 1-.1.3-.3.6-.6.8-.2.2-.5.4-.8.6-.3.1-.7.2-1 .2-.4 0-.7-.1-1-.2-.3-.1-.6-.3-.8-.5-.2-.2-.4-.5-.6-.8-.1-.3-.2-.6-.2-1m.5 0c0 .3.1.6.2.9.1.3.3.5.5.7.2.2.4.4.7.5.3.1.6.2.9.2.3 0 .6-.1.9-.2.3-.1.5-.3.7-.5.2-.2.4-.4.5-.7.1-.3.2-.6.2-.9 0-.3-.1-.6-.2-.9-.1-.3-.3-.5-.5-.7-.2-.2-.4-.4-.7-.5-.3-.1-.6-.2-.9-.2-.3 0-.6.1-.9.2-.3.1-.5.3-.7.5-.2.2-.4.4-.5.7-.2.3-.2.6-.2.9m1.2-1.5h1.1c.4 0 .6.1.8.2.2.1.3.4.3.7 0 .3-.1.5-.2.6-.2.1-.3.2-.6.2l.9 1.3h-.5l-.8-1.3h-.5v1.3h-.4v-3zm.4 1.4h.8c.1 0 .2 0 .3-.1.1 0 .1-.1.2-.1 0-.1.1-.2.1-.3 0-.1 0-.2-.1-.3 0-.1-.1-.1-.2-.1s-.1-.1-.2-.1h-.9z"
        fill="#263576"/>
</svg>
