<svg xmlns="http://www.w3.org/2000/svg" width="723.46" height="449.28" viewBox="0 0 723.46 449.28"><defs><style>.cls-1{fill:#fea931;}.cls-2{fill-rule:evenodd;}</style></defs><g id="Layer_2" data-name="Layer 2"><g id="Layer_1-2" data-name="Layer 1"><path id="Path_1" data-name="Path 1" d="M34.06,375.64q7.55,0,10.66,3.12c2.08,2.07,3.11,5.63,3.12,10.65v55.95a4.49,4.49,0,0,1-.8,3.12,4.49,4.49,0,0,1-3.12.8H36.24v-57q0-4.49-1.16-6.38t-5.65-1.88H11.6v61.31a4.49,4.49,0,0,1-.8,3.12,4.49,4.49,0,0,1-3.12.8H0V379.55a4.47,4.47,0,0,1,.8-3.11,4.47,4.47,0,0,1,3.11-.8H11.6v8.41a13.93,13.93,0,0,1,2.68-6.31c1.2-1.4,3.21-2.1,6-2.1Z"/><path id="Path_2" data-name="Path 2" d="M116,449.28q-7.53,0-10.65-3.12t-3.12-10.65V419.56q0-7.53,3.12-10.65c2.07-2.08,5.63-3.12,10.65-3.12h12.32c2.81,0,4.81.7,6,2.1A13.93,13.93,0,0,1,137,414.2H120.6c-3,0-4.88.62-5.65,1.88s-1.16,3.38-1.16,6.38v11.31c0,3,.55,4.92,1.67,5.79s3.16,1.31,6.16,1.31h9.56v4.49a5.19,5.19,0,0,1-.65,3.12c-.43.53-1.42.8-3,.8Zm21-57q0-4.49-1.16-6.38c-.77-1.25-2.66-1.88-5.65-1.88H105.09a13.93,13.93,0,0,1,2.68-6.31q1.82-2.1,6-2.1h21q7.53,0,10.65,3.12t3.12,10.65v59.87h-7.69a3.16,3.16,0,0,1-3.91-3.92Z"/><path id="Path_3" data-name="Path 3" d="M239.17,375.64q7.54,0,10.66,3.12c2.07,2.07,3.11,5.63,3.11,10.65v55.95a3.15,3.15,0,0,1-3.91,3.92h-7.68v-57q0-4.49-1.16-6.38c-.78-1.25-2.66-1.88-5.66-1.88H216.7v61.31a3.15,3.15,0,0,1-3.91,3.92h-7.68V379.55c0-1.54.26-2.58.8-3.11a4.44,4.44,0,0,1,3.11-.8h7.68v8.41a13.93,13.93,0,0,1,2.69-6.31c1.2-1.4,3.21-2.1,6-2.1Z"/><path id="Path_4" data-name="Path 4" d="M308.9,389.41q0-7.53,3.11-10.65t10.66-3.12H343q7.53,0,10.65,3.12c2.08,2.07,3.12,5.63,3.12,10.65v46.1q0,7.53-3.12,10.65c-2.07,2.08-5.63,3.12-10.65,3.12h-20.3q-7.53,0-10.65-3.12t-3.12-10.65Zm18.4-5.36c-3,0-4.88.62-5.65,1.88s-1.16,3.38-1.16,6.38v40.3q0,4.49,1.16,6.38c.77,1.25,2.66,1.88,5.65,1.88h11c3,0,4.88-.63,5.66-1.88s1.15-3.39,1.15-6.38v-40.3q0-4.49-1.15-6.38t-5.66-1.88Z"/><path id="Path_5" data-name="Path 5" d="M425.29,347.81v97.55c0,1.55-.26,2.59-.8,3.12a4.47,4.47,0,0,1-3.11.8h-7.69V351.72a3.16,3.16,0,0,1,3.92-3.91Z"/><path id="Path_6" data-name="Path 6" d="M482.26,389.41q0-7.53,3.12-10.65T496,375.64h20.29q7.53,0,10.66,3.12c2.07,2.07,3.11,5.63,3.11,10.65v46.1q0,7.53-3.11,10.65t-10.66,3.12H496q-7.54,0-10.65-3.12t-3.12-10.65Zm18.41-5.36c-3,0-4.88.62-5.66,1.88s-1.16,3.38-1.16,6.38v40.3q0,4.49,1.16,6.38c.78,1.25,2.66,1.88,5.66,1.88h11c3,0,4.88-.63,5.66-1.88s1.16-3.39,1.16-6.38v-40.3q0-4.49-1.16-6.38c-.78-1.25-2.66-1.88-5.66-1.88Z"/><path id="Path_7" data-name="Path 7" d="M618.51,375.64c1.55,0,2.54.27,3,.8a5.16,5.16,0,0,1,.66,3.11v4.5H604.31c-3,0-4.88.62-5.66,1.88s-1.16,3.38-1.16,6.38v40.3q0,4.49,1.16,6.38c.78,1.25,2.66,1.88,5.66,1.88h17.83v4.49a5.18,5.18,0,0,1-.66,3.12c-.43.53-1.42.8-3,.8H599.67q-7.54,0-10.65-3.12t-3.12-10.65v-46.1q0-7.53,3.12-10.66t10.65-3.11Z"/><path id="Path_8" data-name="Path 8" d="M687.08,445.36a3.16,3.16,0,0,1-3.92,3.92h-7.68V351.72a3.16,3.16,0,0,1,3.91-3.91h7.69Zm4.34-40.58,16-25.23a13,13,0,0,1,2.17-3,4.88,4.88,0,0,1,3.34-.94H722L700,408.4l23.48,40.88h-10a4.83,4.83,0,0,1-3.34-.95,12.52,12.52,0,0,1-2.17-3l-16.53-31.31Z"/><rect id="Rectangle_1" data-name="Rectangle 1" class="cls-1" x="482.43" y="347.79" width="47.93" height="5.91"/><path id="Path_9" data-name="Path 9" class="cls-2" d="M270.76,131.23l-35.95,51H207.07V0H276.7l91.88,131.23Zm195.53,0,35.94-51H530v51h.12V262.46H460.45L368.58,131.23Z"/></g></g></svg>